<?xml version="1.0" standalone="no"?><!DOCTYPE svg PUBLIC "-//W3C//DTD SVG 1.1//EN" "http://www.w3.org/Graphics/SVG/1.1/DTD/svg11.dtd"><svg t="1481602157013" class="icon" style="" viewBox="0 0 1025 1024" version="1.1" xmlns="http://www.w3.org/2000/svg" p-id="15787" xmlns:xlink="http://www.w3.org/1999/xlink" width="16.015625" height="16"><defs><style type="text/css"></style></defs><path d="M1014.663586 9.36504c-12.486719-12.487742-32.731084-12.485696-45.217803 0L263.506179 715.325106c-12.486719 12.486719-12.485696 32.731084 0.001023 45.217803 6.24336 6.24336 14.425619 9.364016 22.608902 9.364016s16.366565-3.12168 22.608902-9.365039l705.939603-705.960067C1027.150305 42.096124 1027.150305 21.850736 1014.663586 9.36504z" p-id="15788" fill="#333333"></path><path d="M927.21767 318.894277c-17.658824 0-31.973941 14.315117-31.973941 31.973941 0 0.358108 0.015347 0.712124 0.026602 1.067162l0 593.605172c0 7.438418-6.203456 13.489422-13.830136 13.489422L77.775949 959.029975c-7.624634 0-13.82809-6.051004-13.82809-13.489422L63.947859 141.195901c0-7.438418 6.203456-13.489422 13.82809-13.489422l593.283898 0c17.658824 0 31.973941-14.315117 31.973941-31.973941s-14.315117-31.973941-31.973941-31.973941L77.775949 63.758597c-42.95456 0-77.775973 34.669984-77.775973 77.437305l0 804.344651c0 42.768344 34.821413 77.437305 77.775973 77.437305l803.665269 0c42.955583 0 77.778019-34.668961 77.778019-77.437305L959.219237 349.845052l-0.053205 0C958.623754 332.660977 944.533734 318.894277 927.21767 318.894277z" p-id="15789" fill="#333333"></path></svg>