<?xml version="1.0" standalone="no"?><!DOCTYPE svg PUBLIC "-//W3C//DTD SVG 1.1//EN" "http://www.w3.org/Graphics/SVG/1.1/DTD/svg11.dtd"><svg t="1481640322691" class="icon" style="" viewBox="0 0 1024 1024" version="1.1" xmlns="http://www.w3.org/2000/svg" p-id="7207" xmlns:xlink="http://www.w3.org/1999/xlink" width="18" height="18"><defs><style type="text/css"></style></defs><path d="M1023.351 352.942c0 258.095-511.367 600.886-511.367 600.886s-511.338-330.433-511.338-600.886c0-194.409 126.622-282.768 282.768-282.768 72.295 0 138.047 27.333 187.974 72l-130.226 189.050c-3.252 4.722-4.454 10.578-3.322 16.203 1.131 5.613 4.496 10.562 9.333 13.658l193.799 124.543-89.194 107.646c-4.482 5.414-5.995 12.683-4.030 19.442l49.9 172.108c2.673 9.234 11.127 15.299 20.347 15.299 1.639 0 3.322-0.198 4.991-0.595 11.028-2.658 18.001-13.518 15.851-24.645l-30.3-156.599 127.215-127.852c4.285-4.299 6.503-10.237 6.137-16.275-0.381-6.065-3.338-11.666-8.117-15.397l-167.584-130.652 182.121-218.729c3.706-4.454 5.429-10.237 4.765-15.991-0.339-2.955-1.314-5.77-2.8-8.3 28.336-9.601 58.654-14.916 90.254-14.916 156.201 0 282.825 126.622 282.825 282.768z" p-id="7208" fill="#062b3c"></path></svg>