<?xml version="1.0" standalone="no"?><!DOCTYPE svg PUBLIC "-//W3C//DTD SVG 1.1//EN" "http://www.w3.org/Graphics/SVG/1.1/DTD/svg11.dtd"><svg t="1481641296372" class="icon" style="" viewBox="0 0 1024 1024" version="1.1" xmlns="http://www.w3.org/2000/svg" p-id="3510" xmlns:xlink="http://www.w3.org/1999/xlink" width="20" height="20"><defs><style type="text/css"></style></defs><path d="M813.841 121.248h-608.279c-61.344 0-111.068 47.382-111.068 124.872v348.55c0 77.492 49.723 122.304 111.068 122.304h340.012l-28.699 167.183 201.817-167.183h95.147c61.407 0 111.227-44.812 111.227-122.304v-348.549c-0.094-77.491-49.882-124.873-111.226-124.873v0zM272.299 497.662c-42.917 0-77.618-35.18-77.618-78.518 0-43.464 34.7-78.583 77.618-78.583 42.951 0 77.555 35.182 77.555 78.583-0.062 43.4-34.604 78.518-77.555 78.518v0zM509.621 493.36c-42.276 0-76.367-33.255-76.367-74.216 0-41.152 34.090-74.281 76.367-74.281 42.212 0 76.4 33.192 76.4 74.281 0 41.024-34.188 74.216-76.4 74.216v0zM748.193 493.36c-42.052 0-76.367-33.255-76.367-74.216 0-41.152 34.316-74.281 76.367-74.281 42.213 0 76.369 33.192 76.369 74.281 0 41.024-34.156 74.216-76.369 74.216v0z" p-id="3511" fill="#062b3c"></path></svg>