<?xml version="1.0" standalone="no"?><!DOCTYPE svg PUBLIC "-//W3C//DTD SVG 1.1//EN" "http://www.w3.org/Graphics/SVG/1.1/DTD/svg11.dtd"><svg t="1481601508604" class="icon" fill="#333333" style="" viewBox="0 0 1024 1024" version="1.1" xmlns="http://www.w3.org/2000/svg" p-id="2888" xmlns:xlink="http://www.w3.org/1999/xlink" width="16" height="16"><defs><style type="text/css"></style></defs><path d="M0 0l0 4.096 0 59.825152 0 704.128 0 63.828992 0 0.001024 482.347008 0 285.979648 192.816128-0.36864-192.816128 256.695296 0 0-0.001024 0-63.828992L1024.653312 63.920128l0-59.825152 0-4.096L0-0.001024zM959.642624 768.048128l-255.488 0 0 128.848896L526.123008 768.048128 63.642624 768.048128 63.642624 63.920128l896 0L959.642624 768.048128z" p-id="2889"></path><path d="M192.154624 384.314368l640 0 0 63.509504-640 0 0-63.509504Z" p-id="2890"></path><path d="M192.154624 256.258048l255.071232 0 0 63.509504-255.071232 0 0-63.509504Z" p-id="2891"></path><path d="M192.154624 512.347136l640 0 0 63.954944-640 0 0-63.954944Z" p-id="2892"></path></svg>