<?xml version="1.0" standalone="no"?><!DOCTYPE svg PUBLIC "-//W3C//DTD SVG 1.1//EN" "http://www.w3.org/Graphics/SVG/1.1/DTD/svg11.dtd"><svg t="1481162454955" class="icon" style="" viewBox="0 0 1024 1024" version="1.1" xmlns="http://www.w3.org/2000/svg" p-id="5932" xmlns:xlink="http://www.w3.org/1999/xlink" width="32" height="32"><defs><style type="text/css"></style></defs><path d="M512 0.031999c-282.775163 0-511.984 229.240836-511.984 511.984 0 282.775163 229.208837 511.984 511.984 511.984s511.984-229.208837 511.984-511.984C1023.984 229.240836 794.743164 0.031999 512 0.031999zM787.415393 719.593513c18.751414 18.751414 18.751414 49.118465 0 67.869879-9.375707 9.375707-21.663323 14.047561-33.950939 14.047561s-24.575232-4.671854-33.950939-14.047561l-207.545514-207.545514-207.545514 207.545514c-9.375707 9.375707-21.663323 14.047561-33.950939 14.047561s-24.575232-4.671854-33.950939-14.047561c-18.751414-18.751414-18.751414-49.118465 0-67.869879l207.545514-207.545514-207.545514-207.545514c-18.751414-18.751414-18.751414-49.118465 0-67.869879s49.118465-18.751414 67.869879 0l207.545514 207.545514 207.545514-207.545514c18.751414-18.751414 49.118465-18.751414 67.869879 0s18.751414 49.118465 0 67.869879l-207.545514 207.545514L787.415393 719.593513z" p-id="5933" fill="#ea9518"></path></svg>