<?xml version="1.0" standalone="no"?><!DOCTYPE svg PUBLIC "-//W3C//DTD SVG 1.1//EN" "http://www.w3.org/Graphics/SVG/1.1/DTD/svg11.dtd"><svg t="1481164254657" class="icon" style="" viewBox="0 0 1024 1024" version="1.1" xmlns="http://www.w3.org/2000/svg" p-id="7582" xmlns:xlink="http://www.w3.org/1999/xlink" width="32" height="32"><defs><style type="text/css"></style></defs><path d="M788.633435 62.597687l-554.63196 0c-93.990674 0-170.892135 76.901461-170.892135 170.892135l0 554.63196c0 93.990674 76.901461 170.892135 170.892135 170.892135l554.63196 0c93.990674 0 170.892135-76.901461 170.892135-170.892135l0-554.63196C959.52557 139.499148 882.624109 62.597687 788.633435 62.597687zM918.593322 788.121781c0 34.524305-13.570063 67.10842-38.210253 91.749634-24.64019 24.64019-57.224306 38.210253-91.749634 38.210253l-554.63196 0c-34.524305 0-67.10842-13.570063-91.749634-38.210253-24.64019-24.64019-38.210253-57.224306-38.210253-91.749634l0-554.63196c0-34.524305 13.570063-67.10842 38.210253-91.749634 24.64019-24.64019 57.224306-38.210253 91.749634-38.210253l554.63196 0c34.524305 0 67.10842 13.570063 91.749634 38.210253s38.210253 57.224306 38.210253 91.749634L918.593322 788.121781z" p-id="7583" fill="#2aa515"></path><path d="M468.373387 780.87575 246.926856 516.611018 201.098087 562.439786 433.129698 832.123948 475.160977 832.123948 511.317455 832.123948 822.901913 230.52735 777.073144 201.098087Z" p-id="7584" fill="#2aa515"></path></svg>