<?xml version="1.0" standalone="no"?><!DOCTYPE svg PUBLIC "-//W3C//DTD SVG 1.1//EN" "http://www.w3.org/Graphics/SVG/1.1/DTD/svg11.dtd"><svg class="icon" style="" viewBox="0 0 1024 1024" version="1.1" xmlns="http://www.w3.org/2000/svg" p-id="17484" xmlns:xlink="http://www.w3.org/1999/xlink" width="32" height="32"><defs><style type="text/css"><![CDATA[

]]></style></defs><path d="M154.4976 154.445344C-8.832544 317.705792-8.832544 582.420448 154.4976 745.75056 288.492416 879.675712 490.773696 903.506272 649.22624 817.590752L893.524608 992 992.052256 893.542048 817.573312 649.173952C903.55856 490.72144 879.727968 288.44016 745.733152 154.445344 582.472704-8.815104 317.758048-8.815104 154.4976 154.445344ZM647.205504 647.153248 647.205504 647.153248C538.504576 755.784512 361.656512 755.784512 253.025248 647.153248 144.324288 538.452288 144.324288 361.67392 253.025248 252.972992 361.656512 144.272032 538.504576 144.272032 647.205504 252.972992 755.836768 361.67392 755.836768 538.452288 647.205504 647.153248L647.205504 647.153248Z" p-id="17485" fill="#e6e6e6"></path></svg>