<?xml version="1.0" standalone="no"?><!DOCTYPE svg PUBLIC "-//W3C//DTD SVG 1.1//EN" "http://www.w3.org/Graphics/SVG/1.1/DTD/svg11.dtd"><svg t="1481602458781" class="icon" style="" viewBox="0 0 1024 1024" version="1.1" xmlns="http://www.w3.org/2000/svg" p-id="22186" xmlns:xlink="http://www.w3.org/1999/xlink" width="18" height="18"><defs><style type="text/css"></style></defs><path d="M943.87973 65.404616c-3.031033-1.604544-6.356778-2.382257-9.942443-2.382257-13.044084 0-24.907273 10.837836-24.722054 10.837836-7.941879 4.433986-794.441721 444.189591-822.267463 460.445834-15.70468 9.150404-24.687262 24.790616-23.391756 40.801265 0.995677 13.178137 8.832156 23.559579 20.840654 27.827789 23.610744 8.293897 261.847683 91.785449 261.847683 91.785449l4.361331 1.477654 15.038508-50.16247-229.439576-79.713506L840.557526 159.15686c-74.719772 94.084818-379.39282 477.356992-393.432581 495.006977-18.144242 22.537296-26.606984 45.195342-26.53126 71.14127l0.254803 153.602354-0.069585 0c0 0 0.069585 53.607942 0.069585 53.774741l0 1.971911c1.076518 13.545504 11.493775 24.301476 23.947412 24.301476 12.453636 0 23.02132-10.755971 24.130583-24.301476 0 0 0.479931-191.455473 0-205.533097-0.444115-12.521175 4.582365-26.599821 9.642614-33.127492 5.101181-6.402827 352.421538-443.573561 420.188968-528.954137-19.290345 106.641809-114.294093 631.127168-115.696022 638.799918-0.740874 4.065596-2.330068 4.065596-3.031033 4.065596-0.554632 0-1.184989-0.12075-1.849114-0.370437-6.728238-2.37714-242.519476-81.724303-252.53662-85.09098l-4.245697-1.438769-15.484669 50.612725 4.583388 1.600451c2.328022 0.782829 233.57885 79.268368 256.56026 86.657662 4.582365 1.477654 9.237385 2.255367 13.933337 2.255367 24.352641 0 44.711318-19.417235 49.513694-47.084365 1.88493-10.956539 24.390503-134.965901 50.443879-278.597159 35.879162-197.571774 76.490092-421.532569 77.525678-428.550403l0.553609-3.327792C960.948477 95.03854 964.164728 75.993788 943.87973 65.404616" p-id="22187" fill="#222222"></path></svg>