<?xml version="1.0" standalone="no"?><!DOCTYPE svg PUBLIC "-//W3C//DTD SVG 1.1//EN" "http://www.w3.org/Graphics/SVG/1.1/DTD/svg11.dtd"><svg t="1481640408858" class="icon" style="" viewBox="0 0 1024 1024" version="1.1" xmlns="http://www.w3.org/2000/svg" p-id="10639" xmlns:xlink="http://www.w3.org/1999/xlink" width="18" height="18"><defs><style type="text/css"></style></defs><path d="M498.688 995.008c-0.32-0.384-56.832-44.224-131.648-113.152l0 0c-74.688-68.608-167.616-161.984-241.024-261.76l0 0C77.248 553.472 36.928 484.352 16.896 416.192l0 0c-8.512-26.624-13.12-55.04-13.12-84.544l0 0c0-154.816 125.952-280.128 281.28-280.128l0 0C343.872 51.392 396.8 69.632 439.168 100.928l0 0C468.992 122.752 493.632 151.04 512.064 183.616l0 0c18.368-32.576 43.008-60.8 72.832-82.688l0 0c42.496-31.296 95.296-49.472 154.176-49.408l0 0c155.328 0 281.344 125.312 281.344 280.128l0 0c0 19.328-1.984 38.272-5.76 56.448l0 0 0.896 0-4.608 15.872c-1.152 4.096-2.24 8.128-3.648 12.096l0 0c-20.032 68.096-60.224 137.408-109.056 204.032l0 0c-49.088 66.496-106.56 130.112-161.664 185.408l0 0c-110.272 110.784-210.624 188.992-211.008 189.376l0 0-13.312 10.24L498.688 995.008 498.688 995.008 498.688 995.008z" p-id="10640" fill="#efb336"></path><path d="M500.096 993.472c-0.32-0.256-56.832-44.224-131.648-112.96l0 0c-74.688-68.8-167.68-162.176-241.024-262.016l0 0c-48.768-66.368-89.088-135.68-109.056-203.712l0 0C9.856 388.16 5.248 359.68 5.248 330.176l0 0c0-154.752 125.952-280.192 281.216-280.192l0 0c58.88 0 111.808 18.24 154.24 49.408l0 0c29.824 21.952 54.4 50.176 72.832 82.688l0 0c18.432-32.512 43.072-60.736 72.832-82.688l0 0c42.496-31.232 95.232-49.408 154.112-49.408l0 0c155.392 0 281.344 125.376 281.344 280.192l0 0c0 19.392-1.92 38.272-5.76 56.512l0 0 0.96 0L1012.224 402.56c-1.088 4.096-2.368 8.128-3.52 12.096l0 0c-20.032 68.096-60.352 137.536-109.248 203.968l0 0c-48.896 66.624-106.496 130.24-161.6 185.6l0 0c-110.144 110.656-210.56 188.864-210.944 189.248l0 0-13.376 10.368L500.096 993.472 500.096 993.472 500.096 993.472z" p-id="10641" fill="#ffd224"></path></svg>