<?xml version="1.0" standalone="no"?><!DOCTYPE svg PUBLIC "-//W3C//DTD SVG 1.1//EN" "http://www.w3.org/Graphics/SVG/1.1/DTD/svg11.dtd"><svg t="1481603082731" class="icon" style="" viewBox="0 0 1024 1024" version="1.1" xmlns="http://www.w3.org/2000/svg" p-id="27384" xmlns:xlink="http://www.w3.org/1999/xlink" width="19" height="19"><defs><style type="text/css"></style></defs><path d="M936.897711 427.536306c-14.32731-20.231787-38.858006-32.080649-72.906473-35.217083L640.076492 392.319224l29.78128-204.931393c0.028653-0.152473 3.01773-16.09763-0.576121-34.208103-4.675486-23.563672-17.86488-39.666418-39.198767-47.860031l-0.432859-0.165776-0.396019-0.240477c-0.155543-0.094144-16.567327-9.870812-37.048801-9.870812-20.393469 0-37.725206 9.487072-51.518351 28.199249L362.055454 393.081587l-139.302673-0.00307c-2.839675 0-28.477588 0.401136-53.93847 14.282285-32.686447 17.820877-50.915623 49.350988-54.18304 93.710288l0 310.421982c0 0.273223 0.172939 27.452235 13.625322 54.095036 17.73799 35.129078 49.29266 52.940746 93.789083 52.940746l1.119497-0.004093 501.345336 0.769526c3.922333 0 96.41898-1.213641 127.969557-106.984616l96.54587-308.628126C949.610244 501.225609 959.20067 459.032648 936.897711 427.536306zM221.927997 874.614691c-33.392528-4.618181-48.353264-20.87033-55.024198-33.69031-6.859221-13.184277-6.51846-25.38925-6.42227-27.224038l0-312.323285 0.007163-0.140193c1.600451-29.126364 18.424628-44.503587 32.255635-52.274574 14.70184-8.260128 28.918633-9.742898 29.517267-9.80225l0.503467-0.024559 109.884666 0 0 435.528328L221.927997 874.614691zM905.545656 489.601874l-0.134053 0.51984L806.962384 804.572452c-10.092869 35.328623-32.32215 52.822043-49.197492 61.276598-18.270109 9.153474-34.095539 9.91686-34.760688 9.945513l-0.107447 0.005117-343.083869 0L379.812887 438.568571l189.625802-273.243221c1.452071-2.418073 14.978133-24.101931 33.075303-24.101931 3.465938 0 6.875594 0.792039 10.133801 2.354628 21.153786 10.141988 12.092409 45.149293 10.962679 49.197492L584.301188 439.569364l279.785218 0 0.23843 0.022513c15.464203 1.449002 26.925233 7.049556 34.062793 16.646122C909.178393 470.744387 905.698129 488.838488 905.545656 489.601874z" p-id="27385" fill="#333333"></path></svg>